<svg width="40" height="40" viewBox="0 0 40 40" fill="none" xmlns="http://www.w3.org/2000/svg">
<g clip-path="url(#clip0)">
<rect width="40" height="40" rx="20" fill="white"/>
<path fill-rule="evenodd" clip-rule="evenodd" d="M13.4978 8.24702C8.39785 5.90319 2.55647 5.51896 -2.90748 8.42311L-4.10037 6.21823C2.17848 2.88095 8.86359 3.36729 14.5468 5.97919C19.9143 8.44598 24.4537 12.8317 27.0509 17.8159L31.6593 17.2797C32.4233 17.1908 32.9975 17.9616 32.6935 18.6681L27.6762 30.331L20.008 20.1509C19.5432 19.5338 19.9238 18.6452 20.6911 18.5559L24.362 18.1288C21.9659 13.984 18.0576 10.3426 13.4978 8.24702Z" fill="#408AE0"/>
<path fill-rule="evenodd" clip-rule="evenodd" d="M14.7415 36.0407C15.7387 38.734 17.7132 40.9865 20.7409 41.9127L20.3748 43.1421C16.8955 42.0778 14.6527 39.483 13.5414 36.4817C12.4919 33.6471 12.4363 30.4178 13.2999 27.6747L12.1005 26.7253C11.4974 26.248 11.6365 25.2969 12.351 25.0123L16.0015 23.5579C16.7147 23.2737 17.4688 23.866 17.3618 24.6263L16.8118 28.5346C16.7041 29.2996 15.8066 29.6588 15.2009 29.1794L14.386 28.5344C13.7533 30.901 13.8499 33.6326 14.7415 36.0407Z" fill="#408AE0"/>
</g>
<defs>
<clipPath id="clip0">
<rect width="40" height="40" rx="20" fill="white"/>
</clipPath>
</defs>
</svg>
