<svg width="90" height="52" viewBox="0 0 90 52" fill="none" xmlns="http://www.w3.org/2000/svg">
<path d="M20.8582 18.3352C20.6137 18.2894 20.1533 18.3406 19.9128 18.4029C18.8793 18.6706 17.9567 18.7892 16.9348 18.4596C16.6374 18.3637 16.3239 18.2861 16.0176 18.3507C15.3352 18.4946 14.8386 18.957 14.4993 19.6192L10.2392 27.7292C9.93852 28.3161 9.8527 29.0661 10.391 29.4637C10.6502 29.6552 10.9497 29.779 11.2494 29.8548C12.0265 30.0514 12.7361 29.5166 13.0953 28.822L14.684 26.0765C14.7901 25.8932 15.08 25.9672 15.0819 26.1774C15.1041 28.6374 15.1897 29.0705 14.31 31.8818C13.6868 33.8731 11.7087 39.5818 11.5586 40.015C11.5519 40.0342 11.5461 40.0516 11.5403 40.0712C10.9577 42.013 13.2957 42.3558 14.671 41.687C15.2385 41.411 15.574 40.8623 15.752 40.2728C16.3297 38.36 17.6782 33.853 18.3355 31.3114C19.8124 32.6678 20.5097 36.8521 20.7296 39.7245C20.7707 40.2613 20.9827 40.8009 21.4577 41.0818C22.415 41.6479 23.2804 41.4367 23.8714 41.0646C24.2984 40.7958 24.4585 40.2899 24.444 39.7975C24.2939 34.6892 22.2524 31.0355 21.2803 29.438V27.6632L23.7692 29.366C24.212 29.7307 24.8243 29.992 25.2987 29.6664C25.4758 29.5448 25.6278 29.39 25.7564 29.221C26.2464 28.5767 25.9385 27.7167 25.3536 27.1512L22.3135 24.2123C21.9247 23.8365 21.7231 23.3156 21.761 22.7846L21.9119 20.6696C21.9119 19.4956 21.8506 18.5213 20.8582 18.3352Z" fill="#818C99"/>
<path d="M21.4235 13.5496C21.4235 15.51 20.1876 17.2964 18.1597 17.2964C16.1318 17.2964 14.4878 15.51 14.4878 13.5496C14.4878 11.5892 15.7238 10 17.7517 10C19.7796 10 21.4235 11.5892 21.4235 13.5496Z" fill="#818C99"/>
<path d="M38.9219 25.6797V20.7266H37.5156V32H38.9219V26.8047H39.3281L44.3438 32H46.2031L40.5391 26.1562L45.75 20.7266H43.9844L39.3281 25.6797H38.9219ZM50.9925 32C52.805 32 53.8753 31.0469 53.8753 29.5781C53.8753 28.5938 53.1956 27.8438 52.1253 27.6953V27.5703C52.9144 27.4062 53.5003 26.6094 53.5003 25.7734C53.5003 24.4453 52.5706 23.5781 50.9769 23.5781H47.4066V32H50.9925ZM48.7503 24.7031H50.805C51.7503 24.7031 52.1722 25.1875 52.1722 25.9141C52.1722 26.7188 51.68 27.1406 50.5863 27.1406H48.7503V24.7031ZM48.7503 28.2656H50.7034C51.9144 28.2656 52.5394 28.6641 52.5394 29.5547C52.5394 30.4062 51.9925 30.875 50.9613 30.875H48.7503V28.2656ZM61.36 29.8203C61.0084 30.5625 60.2741 30.9609 59.1881 30.9609C57.7584 30.9609 56.8288 29.9062 56.7584 28.2422V28.1797H62.8131V27.6641C62.8131 25.0469 61.4303 23.4297 59.1569 23.4297C56.8444 23.4297 55.36 25.1484 55.36 27.7969C55.36 30.4609 56.8209 32.1484 59.1569 32.1484C61.0006 32.1484 62.3131 31.2578 62.7038 29.8203H61.36ZM59.1413 24.6172C60.4772 24.6172 61.3678 25.6016 61.3991 27.0938H56.7584C56.86 25.6016 57.7975 24.6172 59.1413 24.6172ZM71.7275 26.1562C71.4931 24.6562 70.2431 23.4297 68.1963 23.4297C65.8369 23.4297 64.3369 25.1328 64.3369 27.7578C64.3369 30.4375 65.8447 32.1484 68.2041 32.1484C70.2275 32.1484 71.4853 31.0078 71.7275 29.4609H70.3681C70.1181 30.4141 69.3291 30.9375 68.1963 30.9375C66.6963 30.9375 65.7275 29.7031 65.7275 27.7578C65.7275 25.8516 66.6806 24.6406 68.1963 24.6406C69.4072 24.6406 70.1494 25.3203 70.3681 26.1562H71.7275ZM79.2513 23.5781H72.4388V24.7031H75.1731V32H76.5169V24.7031H79.2513V23.5781Z" fill="#818C99"/>
</svg>
